# xmcd CD database file
#
# Track frame offsets:
#	150
#	15842
#	34203
#	41322
#	65874
#	85876
#	97105
#	116313
#	127560
#	147505
#	169626
#
# Disc length: 2576 seconds
#
# Revision: 0
# Processed by: cddbd v1.5.2PL0 Copyright (c) Steve Scherf et al.
# Submitted via: CDex 1.51
#
DISCID=850a0e0b
DTITLE=Sean Apple - Ain't Gonna Stop
DYEAR=2010
DGENRE=Blues
TTITLE0=01Still on this side of the Dirt 24 - 01Still on this side of the Dirt 24
TTITLE1=02Ain - t Gonna Stop  Final 24
TTITLE2=03Ode to Othar 24 - 03Ode to Othar 24
TTITLE3=04Five Legged Mule 24 - 04Five Legged Mule 24
TTITLE4=05Somebody Gotta Win 24 - 05Somebody Gotta Win 24
TTITLE5=06Mighty Mississip 24 - 06Mighty Mississip 24
TTITLE6=07Shake Your Rump 24 - 07Shake Your Rump 24
TTITLE7=08Po Mary 24 - 08Po Mary 24
TTITLE8=09Bull Frog 24 - 09Bull Frog 24
TTITLE9=10Goin Down To Reds 24 - 10Goin Down To Reds 24
TTITLE10=11Take and Take Somemore 24 - 11Take and Take Somemore 24
EXTD=YEAR: 2010
EXTT0=
EXTT1=
EXTT2=
EXTT3=
EXTT4=
EXTT5=
EXTT6=
EXTT7=
EXTT8=
EXTT9=
EXTT10=
PLAYORDER=
